
Input File     : '/home/dzubke/awni_speech/speech/tests/pytest/test_audio/Speak-out.wav'
Channels       : 1
Sample Rate    : 16000
Precision      : 16-bit
Duration       : 00:00:03.97 = 63530 samples ~ 297.797 CDDA sectors
File Size      : 127k
Bit Rate       : 256k
Sample Encoding: 16-bit Signed Integer PCM

